HIERARCHY
ROOT Hips
{
	OFFSET 0.00000 0.00000 0.00000
	CHANNELS 6 Xposition Yposition Zposition Zrotation Yrotation Xrotation 
	JOINT LHipJoint
	{
		OFFSET 0 0 0
		CHANNELS 3 Zrotation Yrotation Xrotation
		JOINT LeftHip
		{
			OFFSET 1.86795 -1.59681 0.65681
			CHANNELS 3 Zrotation Yrotation Xrotation
			JOINT LeftKnee
			{
				OFFSET 2.30491 -6.33268 0.00000
				CHANNELS 3 Zrotation Yrotation Xrotation
				JOINT LeftAnkle
				{
					OFFSET 2.46780 -6.78022 0.00000
					CHANNELS 3 Zrotation Yrotation Xrotation
					JOINT LeftToe
					{
						OFFSET 0.07897 -0.21698 1.59652
						CHANNELS 3 Zrotation Yrotation Xrotation
						End Site
						{
							OFFSET 0.00000 -0.00000 0.82310
						}
					}
				}
			}
		}
	}
	JOINT RHipJoint
	{
		OFFSET 0 0 0
		CHANNELS 3 Zrotation Yrotation Xrotation
		JOINT RightHip
		{
			OFFSET -1.93650 -1.59681 0.65681
			CHANNELS 3 Zrotation Yrotation Xrotation
			JOINT RightKnee
			{
				OFFSET -2.29410 -6.30299 0.00000
				CHANNELS 3 Zrotation Yrotation Xrotation
				JOINT RightAnkle
				{
					OFFSET -2.48738 -6.83403 0.00000
					CHANNELS 3 Zrotation Yrotation Xrotation
					JOINT RightToe
					{
						OFFSET -0.08699 -0.23899 1.89395
						CHANNELS 3 Zrotation Yrotation Xrotation
						End Site
						{
							OFFSET -0.00000 -0.00000 0.96904
						}
					}
				}
			}
		}
	}
	JOINT lowerback
	{
		OFFSET 0 0 0
		CHANNELS 3 Zrotation Yrotation Xrotation
		JOINT Chest
		{
			OFFSET 0.03629 1.99740 -0.07548
			CHANNELS 3 Zrotation Yrotation Xrotation
			JOINT Chest2
			{
				OFFSET 0.03970 1.94298 0.17218
				CHANNELS 3 Zrotation Yrotation Xrotation
				JOINT lowerneck
				{
					OFFSET 0 0 0
					CHANNELS 3 Zrotation Yrotation Xrotation
					JOINT Neck
					{
						OFFSET -0.05054 1.79469 0.04241
						CHANNELS 3 Zrotation Yrotation Xrotation
						JOINT Head
						{
							OFFSET 0.05195 1.78475 -0.22133
							CHANNELS 3 Zrotation Yrotation Xrotation
							End Site
							{
								OFFSET 0.02420 1.80711 -0.07950
							}
						}
					}
				}
				JOINT LeftCollar
				{
					OFFSET 0 0 0
					CHANNELS 3 Zrotation Yrotation Xrotation
					JOINT LeftShoulder
					{
						OFFSET 2.92134 1.19850 0.36056
CHANNELS 3 Zrotation Xrotation Yrotation
						JOINT LeftElbow
						{
OFFSET 0 -4.841370 0.000000
CHANNELS 3 Zrotation Xrotation Yrotation
							JOINT LeftWrist
							{
OFFSET 0 -3.245200 -0.000000
CHANNELS 3 Zrotation Xrotation Yrotation
								JOINT lhand
								{
									OFFSET 0 0 0
CHANNELS 3 Zrotation Xrotation Yrotation
									JOINT LFingers
									{
OFFSET 0 -0.521220 0.000000
CHANNELS 3 Zrotation Xrotation Yrotation
										End Site
										{
OFFSET 0 -0.420220 0.000000
										}
									}
								}
								JOINT LThumb
								{
OFFSET 0 0.000000 0.000000
CHANNELS 3 Zrotation Xrotation Yrotation
									End Site
									{
OFFSET 0 -0.426640 0.426640
									}
								}
							}
						}
					}
				}
				JOINT RightCollar
				{
					OFFSET 0 0 0
					CHANNELS 3 Zrotation Yrotation Xrotation
					JOINT RightShoulder
					{
						OFFSET -2.84327 1.20795 0.50191
CHANNELS 3 Zrotation Xrotation Yrotation
						JOINT RightElbow
						{
OFFSET 0 -4.722840 0.000000
CHANNELS 3 Zrotation Xrotation Yrotation
							JOINT RightWrist
							{
OFFSET 0 -3.234590 0.000000
CHANNELS 3 Zrotation Xrotation Yrotation
								JOINT rhand
								{
									OFFSET 0 0 0
CHANNELS 3 Zrotation Xrotation Yrotation
									JOINT RFingers
									{
OFFSET 0 -0.307420 0.000000
CHANNELS 3 Zrotation Xrotation Yrotation
										End Site
										{
OFFSET 0 -0.247850 0.000000
										}
									}
								}
								JOINT RThumb
								{
OFFSET 0 0.000000 0.000000
CHANNELS 3 Zrotation Xrotation Yrotation
									End Site
									{
OFFSET 0 -0.251630 0.251630
									}
								}
							}
						}
					}
				}
			}
		}
	}
}
MOTION
Frames: 4
Frame Time: 0.008333333333333333
3.987998 15.096998 -3.547372 -6.244478 41.234938 28.814475 0.000000 0.000000 0.000000 19.204451 -28.385217 -76.834241 5.909629 14.340168 44.617895 -0.235444 -12.710236 -5.382681 1.614097 -8.011094 -22.747754 0.000000 0.000000 0.000000 19.024472 15.213412 -55.583529 -9.453894 -17.091064 57.646925 -1.527746 -20.320730 -37.863711 -1.821644 -8.484105 24.194543 -2.333911 3.379691 34.002527 -2.884953 2.987648 0.379883 -3.288415 1.348142 -17.170768 -0.271199 5.264543 -10.339020 -0.115680 7.828317 -18.028707 -0.054082 4.218395 -4.207398 0.000000 0.000000 0.000000 29.817314 24.718748 -31.497997 30.700913 -41.486666 11.871274 5.814790 28.992188 -28.487207 0.000000 0.000000 0.000000 -7.125000 0.000000 0.000000 -26.903294 56.483080 7.979143 0.000000 0.000000 0.000000 -29.482061 34.088586 79.144018 -18.719457 -29.068544 -4.893759 -19.228888 -6.994621 -34.193370 0.000000 0.000000 0.000000 7.125000 0.000000 0.000000 7.357724 -5.495362 8.093375
4.225601 15.165404 -3.338224 -7.779780 43.425653 28.732546 0.000000 0.000000 0.000000 20.136892 -28.642529 -78.315387 6.331326 14.741896 46.297375 -0.358702 -13.640367 -4.249102 0.521511 -4.623061 -12.837316 0.000000 0.000000 0.000000 20.972193 15.043789 -54.133436 -8.892143 -16.737738 55.716236 -1.993802 -19.540581 -39.414054 -3.147461 -10.929581 32.043282 -2.871868 3.431310 34.043042 -2.911138 2.829456 0.142833 -2.972622 1.318027 -17.501232 0.393622 4.704166 -10.715781 0.158417 7.057858 -18.009621 -0.057633 3.791954 -4.115383 0.000000 0.000000 0.000000 28.456039 24.549199 -32.714920 31.719192 -42.322120 12.551317 -0.267173 32.312049 -24.514797 0.000000 0.000000 0.000000 -7.125000 0.000000 0.000000 -29.935323 51.885915 5.483688 0.000000 0.000000 0.000000 -28.111158 32.547918 76.395258 -18.189079 -28.398578 -4.638825 -19.000261 -5.024475 -31.044220 0.000000 0.000000 0.000000 7.125000 0.000000 0.000000 7.065742 -2.282044 7.397164
4.415496 15.218755 -3.202433 -8.162270 44.411982 29.165580 0.000000 0.000000 0.000000 20.311047 -29.050002 -78.598577 6.387898 14.794007 46.519400 -0.392371 -14.158331 -4.311266 0.360055 -3.850963 -10.658254 0.000000 0.000000 0.000000 21.685242 14.414279 -53.165830 -8.487290 -16.466136 54.299393 -1.912405 -19.903657 -39.353626 -3.122532 -10.890854 31.912547 -4.121562 3.442520 34.166747 -2.560045 2.415601 0.183357 -1.726174 1.265401 -17.558654 -1.220808 4.436769 -11.585407 1.696843 6.916979 -16.363757 0.773575 3.764100 -3.494366 0.000000 0.000000 0.000000 25.571946 25.062263 -30.356900 30.932983 -41.679544 12.025381 2.237948 33.688758 -27.008661 0.000000 0.000000 0.000000 -7.125000 0.000000 0.000000 -29.274683 54.493079 7.302194 0.000000 0.000000 0.000000 -30.310485 31.426226 77.814657 -18.835071 -29.213087 -4.950163 -17.384880 -5.473022 -30.297006 0.000000 0.000000 0.000000 7.125000 0.000000 0.000000 7.904955 -1.232905 8.150520
4.546078 15.236050 -3.132646 -7.669154 45.516218 30.156038 0.000000 0.000000 0.000000 20.585429 -29.983902 -79.436345 6.420314 14.823613 46.646041 -0.413889 -14.488378 -4.362710 0.210216 -2.952091 -8.145361 0.000000 0.000000 0.000000 21.780992 13.115087 -53.232644 -8.288352 -16.327303 53.594892 -2.020224 -19.741135 -39.718904 -3.151854 -10.936886 32.067319 -5.037844 3.810463 33.930741 -1.954150 2.667185 0.387180 -0.657982 1.473351 -17.260109 -1.982316 3.785132 -11.277075 1.924194 6.070403 -15.881260 0.974956 3.359537 -3.389980 0.000000 0.000000 0.000000 24.654030 25.481702 -31.524740 30.523340 -41.337749 11.753760 1.242426 32.412115 -25.069722 0.000000 0.000000 0.000000 -7.125000 0.000000 0.000000 -28.897965 52.621279 5.813171 0.000000 0.000000 0.000000 -33.247640 32.190923 81.685269 -20.152848 -30.826056 -5.609437 -19.069084 -8.147976 -30.439207 0.000000 0.000000 0.000000 7.125000 0.000000 0.000000 6.952397 -1.682980 7.206455
